<svg xmlns="http://www.w3.org/2000/svg" style="display:none;">
  <symbol id="icon-radar" viewBox="0 0 24 24">
    <circle cx="12" cy="12" r="10" fill="none" stroke="currentColor" stroke-width="2"/>
    <circle cx="12" cy="12" r="6" fill="none" stroke="currentColor" stroke-width="1.5" stroke-dasharray="2 2"/>
    <circle cx="12" cy="12" r="2" fill="currentColor"/>
    <line x1="12" y1="2" x2="12" y2="22" stroke="currentColor" stroke-width="1.5"/>
    <line x1="2" y1="12" x2="22" y2="12" stroke="currentColor" stroke-width="1.5"/>
    <line x1="12" y1="12" x2="19" y2="5" stroke="#00f0ff" stroke-width="2"/>
  </symbol>

  <symbol id="icon-mecha" viewBox="0 0 24 24">
    <polygon points="12,2 4,7 6,18 12,22 18,18 20,7" fill="none" stroke="currentColor" stroke-width="2"/>
    <circle cx="12" cy="11" r="3" fill="currentColor"/>
    <line x1="8" y1="8" x2="10" y2="10" stroke="currentColor" stroke-width="1.5"/>
    <line x1="16" y1="8" x2="14" y2="10" stroke="currentColor" stroke-width="1.5"/>
  </symbol>

  <symbol id="icon-katana" viewBox="0 0 24 24">
    <path d="M4 20L8 16M7 17L19 5C20.5 3.5 21 3 21 3C21 3 20.5 3.5 19 5L7 17Z" fill="none" stroke="currentColor" stroke-width="2" stroke-linecap="round"/>
    <line x1="6" y1="18" x2="9" y2="15" stroke="currentColor" stroke-width="2"/>
    <circle cx="3" cy="21" r="1.5" fill="currentColor"/>
  </symbol>

  <symbol id="icon-shield" viewBox="0 0 24 24">
    <path d="M12 2L4 5V11C4 16.5 7.4 21.6 12 23C16.6 21.6 20 16.5 20 11V5L12 2Z" fill="none" stroke="currentColor" stroke-width="2"/>
    <path d="M12 6L7 8.5V11C7 14.5 9.1 17.7 12 18.8C14.9 17.7 17 14.5 17 11V8.5L12 6Z" fill="currentColor" opacity="0.3"/>
  </symbol>

  <symbol id="icon-target" viewBox="0 0 24 24">
    <circle cx="12" cy="12" r="9" fill="none" stroke="currentColor" stroke-width="2"/>
    <circle cx="12" cy="12" r="3" fill="none" stroke="currentColor" stroke-width="2"/>
    <line x1="12" y1="1" x2="12" y2="6" stroke="currentColor" stroke-width="2"/>
    <line x1="12" y1="18" x2="12" y2="23" stroke="currentColor" stroke-width="2"/>
    <line x1="1" y1="12" x2="6" y2="12" stroke="currentColor" stroke-width="2"/>
    <line x1="18" y1="12" x2="23" y2="12" stroke="currentColor" stroke-width="2"/>
  </symbol>

  <symbol id="icon-cpu" viewBox="0 0 24 24">
    <rect x="5" y="5" width="14" height="14" rx="2" fill="none" stroke="currentColor" stroke-width="2"/>
    <rect x="9" y="9" width="6" height="6" fill="currentColor"/>
    <line x1="9" y1="1" x2="9" y2="5" stroke="currentColor" stroke-width="2"/>
    <line x1="15" y1="1" x2="15" y2="5" stroke="currentColor" stroke-width="2"/>
    <line x1="9" y1="19" x2="9" y2="23" stroke="currentColor" stroke-width="2"/>
    <line x1="15" y1="19" x2="15" y2="23" stroke="currentColor" stroke-width="2"/>
    <line x1="1" y1="9" x2="5" y2="9" stroke="currentColor" stroke-width="2"/>
    <line x1="1" y1="15" x2="5" y2="15" stroke="currentColor" stroke-width="2"/>
    <line x1="19" y1="9" x2="23" y2="9" stroke="currentColor" stroke-width="2"/>
    <line x1="19" y1="15" x2="23" y2="15" stroke="currentColor" stroke-width="2"/>
  </symbol>

  <symbol id="icon-terminal" viewBox="0 0 24 24">
    <rect x="2" y="3" width="20" height="18" rx="2" fill="none" stroke="currentColor" stroke-width="2"/>
    <polyline points="6 9 10 12 6 15" fill="none" stroke="currentColor" stroke-width="2"/>
    <line x1="12" y1="15" x2="18" y2="15" stroke="currentColor" stroke-width="2"/>
  </symbol>

  <symbol id="icon-sound-on" viewBox="0 0 24 24">
    <polygon points="11 5 6 9 2 9 2 15 6 15 11 19 11 5" fill="currentColor"/>
    <path d="M15.54 8.46a5 5 0 0 1 0 7.07" fill="none" stroke="currentColor" stroke-width="2"/>
    <path d="M19.07 4.93a10 10 0 0 1 0 14.14" fill="none" stroke="currentColor" stroke-width="2"/>
  </symbol>

  <symbol id="icon-sound-off" viewBox="0 0 24 24">
    <polygon points="11 5 6 9 2 9 2 15 6 15 11 19 11 5" fill="currentColor"/>
    <line x1="23" y1="9" x2="17" y2="15" stroke="currentColor" stroke-width="2"/>
    <line x1="17" y1="9" x2="23" y2="15" stroke="currentColor" stroke-width="2"/>
  </symbol>
</svg>
